<?xml version="1.0" encoding="UTF-8"?>
<svg xmlns="http://www.w3.org/2000/svg" viewBox="0 0 200 200">
  <g id="Layer_1" data-name="Layer 1">
    <path id="inner_1" data-name="inner 1" d="m102.5,26.8v4.59h-5v-4.59c-39.3,1.32-70.77,33.58-70.77,73.2s32.8,73.27,73.27,73.27,73.27-32.8,73.27-73.27S141.8,28.12,102.5,26.8Z"/>
    <circle id="inner_2" data-name="inner 2" cx="100" cy="100" r="56.81" style="stroke: #fff; stroke-miterlimit: 10;"/>
    <circle id="inner_3" data-name="inner 3" cx="100" cy="100" r="51.83" style="stroke: #fff; stroke-miterlimit: 10;"/>
    <g id="pointer">
      <path id="fill" d="m100,61.61c1.38,0,2.5-1.35,2.5-2.99v-10.38c-.83-.04-1.66-.06-2.5-.06s-1.67.02-2.5.06v10.38c0,1.65,1.12,2.99,2.5,2.99Z" style="fill: #fff;"/>
      <path id="outline" d="m100,48.17c-.84,0-1.67.02-2.5.06v21.38c0,1.65,1.12,2.99,2.5,2.99s2.5-1.35,2.5-2.99v-21.38c-.83-.04-1.66-.06-2.5-.06Z" style="fill: none; stroke: #fff; stroke-miterlimit: 10;"/>
    </g>
  </g>
  <g id="circle_pattern" data-name="circle pattern">
    <g id="pattern_brush_path" data-name="pattern brush path">
      <g>
        <path d="m134.71,170.78c.5,1.01.05,2.23-1.01,2.72-1.06.5-2.27.06-2.71-.98-.44-1.04.02-2.26,1.01-2.72,1-.47,2.21-.03,2.71.98Z"/>
        <path d="m143.95,165.42c.63.93.36,2.21-.61,2.87-.95.68-2.28.31-2.84-.64-.58-.98-.24-2.15.66-2.79.91-.62,2.17-.36,2.8.57Z"/>
        <path d="m152.4,158.89c.74.82.69,2.19-.22,2.92-.92.73-2.23.6-2.93-.28-.7-.88-.57-2.15.3-2.83.86-.69,2.09-.66,2.85.19Z"/>
        <path d="m159.91,151.29c.87.74.91,2.02.12,2.88-.8.86-2.1.92-2.91.14s-.86-2.07-.11-2.87c.75-.81,2.06-.87,2.9-.15Z"/>
        <path d="m166.28,142.7c.95.61,1.18,1.88.53,2.85-.66.97-1.93,1.22-2.83.55s-1.15-1.94-.53-2.85c.62-.91,1.89-1.16,2.83-.55Z"/>
        <path d="m171.44,133.35c1.02.47,1.44,1.71.95,2.77-.47,1.07-1.77,1.45-2.76.92-.99-.53-1.33-1.73-.88-2.74.47-1,1.68-1.42,2.7-.95Z"/>
        <path d="m175.31,123.39c1.06.32,1.72,1.52,1.32,2.62-.41,1.1-1.6,1.66-2.66,1.27-1.05-.39-1.59-1.55-1.2-2.58.37-1.04,1.44-1.64,2.53-1.31Z"/>
        <path d="m177.81,113.01c1.11.18,1.82,1.25,1.59,2.4-.23,1.15-1.32,1.88-2.41,1.63-1.1-.25-1.81-1.32-1.59-2.4.22-1.08,1.3-1.81,2.41-1.63Z"/>
        <path d="m178.79,102.36c1.12.03,2,1,1.95,2.17-.05,1.17-1,2.04-2.12,1.94-1.12-.1-1.99-1.07-1.95-2.17.04-1.1.99-1.97,2.12-1.94Z"/>
        <path d="m178.45,91.69c1.13-.12,2.11.72,2.2,1.89.09,1.17-.75,2.16-1.87,2.21-1.12.05-2.1-.79-2.19-1.89-.08-1.1.76-2.09,1.86-2.21Z"/>
        <path d="m176.6,81.16c1.09-.27,2.19.43,2.45,1.57.28,1.14-.49,2.25-1.58,2.45-1.12.21-2.13-.51-2.4-1.58-.25-1.07.44-2.16,1.53-2.44Z"/>
        <path d="m173.35,70.98c1.04-.42,2.24.12,2.67,1.21.38,1.11-.19,2.29-1.25,2.65-1.07.35-2.22-.21-2.57-1.25-.4-1.02.11-2.19,1.16-2.61Z"/>
        <path d="m168.75,61.34c.96-.55,2.27-.2,2.79.85.53,1.04.15,2.29-.86,2.78-1.01.5-2.24.1-2.74-.88-.48-.99-.18-2.19.81-2.76Z"/>
        <path d="m162.9,52.4c.9-.69,2.2-.49,2.87.47.68.95.47,2.24-.46,2.86-.93.63-2.21.41-2.85-.49-.63-.9-.44-2.17.44-2.85Z"/>
        <path d="m155.89,44.33c.79-.8,2.09-.76,2.9.09.82.84.77,2.15-.08,2.9-.83.74-2.11.69-2.88-.1-.76-.8-.73-2.09.06-2.89Z"/>
        <path d="m147.84,37.3c.68-.9,1.98-1.04,2.9-.31.93.71,1.03,2.05.3,2.9-.74.86-1.98.94-2.86.27-.87-.68-1.02-1.96-.34-2.86Z"/>
        <path d="m138.93,31.4c.55-.98,1.82-1.3,2.84-.72,1,.61,1.29,1.9.68,2.84-.61.95-1.85,1.22-2.79.64-.96-.55-1.28-1.79-.73-2.77Z"/>
        <path d="m129.31,26.76c.41-1.03,1.64-1.57,2.71-1.09,1.07.48,1.54,1.7,1.07,2.72-.48,1.02-1.68,1.48-2.68,1.02-1-.45-1.51-1.59-1.1-2.65Z"/>
        <path d="m119.14,23.47c.27-1.1,1.41-1.76,2.53-1.43,1.13.32,1.77,1.45,1.43,2.52-.33,1.07-1.46,1.7-2.52,1.4-1.06-.32-1.71-1.41-1.44-2.5Z"/>
        <path d="m108.62,21.59c.12-1.12,1.15-1.91,2.31-1.76,1.16.13,1.95,1.2,1.76,2.31-.18,1.1-1.21,1.85-2.31,1.72-1.09-.14-1.88-1.16-1.77-2.28Z"/>
        <path d="m97.94,21.17c-.03-1.12.89-2.06,2.06-2.09,1.17.03,2.09.96,2.06,2.09s-.95,2.01-2.06,1.98c-1.1.03-2.02-.86-2.06-1.98Z"/>
        <path d="m87.3,22.15c-.19-1.12.6-2.18,1.76-2.31,1.16-.15,2.2.64,2.31,1.76s-.68,2.14-1.77,2.28c-1.1.12-2.12-.62-2.31-1.72Z"/>
        <path d="m76.89,24.56c-.33-1.07.31-2.2,1.43-2.52,1.12-.33,2.26.33,2.53,1.43.26,1.08-.39,2.18-1.44,2.5-1.06.3-2.19-.33-2.52-1.4Z"/>
        <path d="m66.92,28.39c-.48-1.02,0-2.24,1.07-2.72,1.07-.48,2.3.06,2.71,1.09.42,1.06-.09,2.2-1.1,2.65-1,.45-2.2,0-2.68-1.02Z"/>
        <path d="m57.55,33.53c-.61-.94-.31-2.23.68-2.84,1.01-.58,2.28-.26,2.84.72.55.98.22,2.22-.73,2.77-.94.58-2.18.31-2.79-.64Z"/>
        <path d="m48.96,39.88c-.72-.84-.63-2.19.3-2.9.92-.72,2.22-.58,2.9.31.68.9.53,2.18-.34,2.86-.88.66-2.12.59-2.86-.27Z"/>
        <path d="m41.29,47.33c-.85-.76-.89-2.06-.08-2.9.81-.85,2.11-.89,2.9-.09s.82,2.09.06,2.89c-.77.79-2.05.84-2.88.1Z"/>
        <path d="m34.7,55.74c-.93-.63-1.14-1.91-.46-2.86.67-.96,1.96-1.16,2.87-.47.88.68,1.07,1.94.44,2.85-.64.9-1.91,1.12-2.85.49Z"/>
        <path d="m29.32,64.97c-1.01-.5-1.4-1.74-.86-2.78.51-1.05,1.83-1.4,2.79-.85.99.56,1.29,1.76.81,2.76-.5.98-1.73,1.37-2.74.88Z"/>
        <path d="m25.24,74.84c-1.07-.35-1.63-1.54-1.25-2.65.43-1.09,1.62-1.63,2.67-1.21,1.04.42,1.56,1.59,1.16,2.61-.35,1.04-1.5,1.6-2.57,1.25Z"/>
        <path d="m22.53,85.18c-1.1-.2-1.86-1.31-1.58-2.45.26-1.14,1.36-1.84,2.45-1.57,1.09.27,1.78,1.36,1.53,2.44-.27,1.07-1.28,1.79-2.4,1.58Z"/>
        <path d="m21.23,95.79c-1.12-.05-1.96-1.04-1.87-2.21.09-1.17,1.07-2.01,2.2-1.89,1.1.12,1.94,1.11,1.86,2.21-.08,1.1-1.06,1.95-2.19,1.89Z"/>
        <path d="m21.38,106.47c-1.12.1-2.07-.77-2.12-1.94-.05-1.17.83-2.14,1.95-2.17,1.12-.03,2.07.84,2.12,1.94.04,1.1-.83,2.07-1.95,2.17Z"/>
        <path d="m23.02,117.04c-1.1.25-2.18-.48-2.41-1.63-.23-1.15.48-2.22,1.59-2.4,1.11-.18,2.19.55,2.41,1.63.22,1.08-.49,2.15-1.59,2.4Z"/>
        <path d="m26.03,127.28c-1.05.39-2.24-.17-2.66-1.27-.39-1.1.26-2.3,1.32-2.62,1.09-.33,2.16.27,2.53,1.31.39,1.03-.15,2.18-1.2,2.58Z"/>
        <path d="m30.38,137.04c-.99.53-2.28.15-2.76-.92-.5-1.06-.08-2.3.95-2.77s2.23-.05,2.7.95c.44,1.01.11,2.21-.88,2.74Z"/>
        <path d="m36.03,146.11c-.91.66-2.18.42-2.83-.55-.66-.97-.42-2.25.53-2.85.95-.61,2.22-.36,2.83.55.62.91.38,2.19-.53,2.85Z"/>
        <path d="m42.88,154.31c-.81.78-2.11.72-2.91-.14-.79-.86-.75-2.14.12-2.88.85-.72,2.16-.66,2.9.15.75.81.7,2.09-.11,2.87Z"/>
        <path d="m50.75,161.53c-.7.88-2.01,1.01-2.93.28-.91-.73-.96-2.1-.22-2.92.76-.85,1.99-.88,2.85-.19.86.68,1,1.95.3,2.83Z"/>
        <path d="m59.51,167.65c-.56.95-1.89,1.33-2.84.64-.97-.65-1.25-1.94-.61-2.87.63-.93,1.89-1.19,2.8-.57.9.65,1.24,1.81.66,2.79Z"/>
        <path d="m69.02,172.53c-.44,1.04-1.65,1.47-2.71.98-1.06-.5-1.51-1.72-1.01-2.72.5-1.01,1.71-1.45,2.71-.98,1,.47,1.45,1.69,1.01,2.72Z"/>
      </g>
    </g>
  </g>
  <g id="Outer_circle" data-name="Outer circle">
    <path d="m100,.5C45.05.5.5,45.05.5,100s44.55,99.5,99.5,99.5,99.5-44.55,99.5-99.5S154.95.5,100,.5Zm0,183.16c-46.21,0-83.66-37.46-83.66-83.66S53.79,16.34,100,16.34s83.66,37.46,83.66,83.66-37.46,83.66-83.66,83.66Z" style="fill: #fff; stroke: #231f20; stroke-miterlimit: 10;"/>
    <path d="m25.98,156.46v-1.14c.53-.02.89-.06,1.1-.11.33-.07.61-.22.82-.45.14-.15.25-.36.33-.61.04-.15.06-.27.06-.34h1.39v8.5h-1.71v-5.86h-2Z"/>
    <path d="m69.3,182.82c.44.76.65,1.84.65,3.25s-.22,2.48-.65,3.24-1.19,1.14-2.28,1.14-1.84-.38-2.28-1.14-.65-1.84-.65-3.24.22-2.48.65-3.25,1.19-1.14,2.28-1.14,1.84.38,2.28,1.14Zm-3.26,5.49c.16.52.49.78.98.78s.82-.26.98-.78.23-1.26.23-2.24-.08-1.78-.23-2.27-.48-.74-.98-.74-.82.25-.98.74-.24,1.25-.24,2.27.08,1.72.24,2.24Z"/>
    <g>
      <path d="m126.96,184.37v-1.14c.53-.02.89-.06,1.1-.11.33-.07.61-.22.82-.45.14-.15.25-.36.33-.61.04-.15.06-.27.06-.34h1.39v8.5h-1.71v-5.86h-2Z"/>
      <path d="m138.38,182.82c.44.76.65,1.84.65,3.25s-.22,2.48-.65,3.24-1.19,1.14-2.28,1.14-1.84-.38-2.28-1.14-.65-1.84-.65-3.24.22-2.48.65-3.25,1.19-1.14,2.28-1.14,1.84.38,2.28,1.14Zm-3.26,5.49c.16.52.49.78.98.78s.82-.26.98-.78.23-1.26.23-2.24-.08-1.78-.23-2.27-.48-.74-.98-.74-.82.25-.98.74-.24,1.25-.24,2.27.08,1.72.24,2.24Z"/>
    </g>
    <path d="m6.75,115.65c.24-.57.8-1.17,1.69-1.8.77-.55,1.27-.95,1.49-1.18.35-.37.52-.78.52-1.22,0-.36-.1-.66-.3-.9s-.48-.36-.86-.36c-.51,0-.85.19-1.04.57-.11.22-.17.57-.19,1.04h-1.62c.03-.72.16-1.31.39-1.75.45-.85,1.24-1.27,2.38-1.27.9,0,1.61.25,2.15.75s.8,1.16.8,1.98c0,.63-.19,1.19-.56,1.68-.25.32-.65.69-1.22,1.08l-.67.47c-.42.3-.71.51-.86.64s-.28.29-.39.46h3.71v1.47h-5.82c.02-.61.15-1.17.39-1.67Z"/>
    <path d="m15.4,62.73c0,.34.05.62.16.84.2.41.57.62,1.1.62.33,0,.61-.11.86-.34.24-.22.37-.55.37-.97,0-.56-.23-.93-.68-1.12-.26-.11-.66-.16-1.21-.16v-1.2c.54,0,.92-.06,1.13-.16.37-.16.55-.5.55-1,0-.32-.09-.59-.28-.79-.19-.2-.46-.3-.8-.3-.39,0-.68.12-.87.38s-.27.58-.27,1h-1.56c.02-.42.09-.82.22-1.2.14-.33.35-.64.64-.92.22-.2.48-.35.78-.46.3-.11.67-.16,1.11-.16.81,0,1.47.21,1.96.63s.75.98.75,1.69c0,.5-.15.92-.45,1.27-.19.21-.38.36-.59.44.15,0,.37.13.66.39.43.39.64.93.64,1.62,0,.72-.25,1.35-.75,1.9-.5.54-1.23.82-2.21.82-1.2,0-2.04-.39-2.51-1.18-.25-.42-.38-.96-.41-1.64h1.64Z"/>
    <path d="m186.73,58.26c-.25.25-.6.68-1.04,1.32s-.82,1.28-1.12,1.95c-.24.53-.45,1.17-.65,1.93-.19.76-.29,1.39-.29,1.88h-1.73c.05-1.52.55-3.11,1.5-4.75.61-1.02,1.13-1.73,1.54-2.13h-4.23l.02-1.5h6v1.31Z"/>
    <path d="m188.45,112.57c.22-.39.53-.68.95-.87-.41-.27-.68-.57-.8-.89-.12-.32-.19-.62-.19-.89,0-.62.23-1.14.7-1.58s1.12-.65,1.97-.65,1.51.22,1.97.65.7.96.7,1.58c0,.28-.06.58-.18.89s-.39.59-.8.83c.42.23.74.54.95.93s.32.82.32,1.29c0,.71-.26,1.32-.79,1.83-.53.5-1.27.75-2.22.75s-1.67-.25-2.16-.75c-.49-.5-.73-1.11-.73-1.83,0-.48.11-.91.32-1.29Zm1.74,2.16c.22.23.52.35.9.35s.68-.12.9-.35.33-.55.33-.97-.11-.76-.33-.99-.52-.34-.89-.34-.67.11-.89.34-.33.55-.33.99.11.74.33.97Zm.11-3.87c.19.2.45.29.79.29s.6-.1.79-.29c.19-.2.28-.45.28-.76,0-.34-.09-.6-.28-.79-.19-.19-.45-.28-.79-.28s-.6.09-.79.28-.29.45-.29.79c0,.31.09.56.29.76Z"/>
    <path d="m169.88,154.6c.53-.56,1.21-.85,2.05-.85,1.29,0,2.18.57,2.66,1.72.27.65.41,1.5.41,2.56s-.13,1.88-.39,2.57c-.5,1.31-1.42,1.96-2.75,1.96-.64,0-1.21-.19-1.72-.57s-.8-.93-.87-1.65h1.66c.04.25.14.45.32.61s.4.23.69.23c.55,0,.94-.3,1.16-.91.12-.34.2-.83.23-1.47-.15.19-.31.34-.49.44-.31.19-.7.28-1.15.28-.68,0-1.28-.23-1.8-.7s-.79-1.14-.79-2.02.26-1.65.79-2.21Zm2.81,3.37c.38-.24.57-.66.57-1.26,0-.48-.11-.86-.34-1.14s-.53-.42-.92-.42c-.29,0-.53.08-.73.24-.32.25-.48.67-.48,1.27,0,.5.1.88.31,1.13s.52.38.95.38c.23,0,.45-.07.65-.2Z"/>
    <path d="m48.87,26.97h-.96v1.83h-1.63v-1.83h-3.36v-1.46l3.12-5.16h1.88v5.31h.96v1.31Zm-2.6-1.31v-3.66l-2.12,3.66h2.12Z"/>
    <path d="m99.12,10.12c.07.36.19.64.38.84s.46.3.82.3c.41,0,.73-.15.94-.44s.32-.66.32-1.1-.1-.8-.3-1.1c-.2-.3-.52-.45-.95-.45-.2,0-.38.03-.53.08-.26.09-.46.27-.59.52l-1.5-.07.6-4.69h4.67v1.42h-3.47l-.3,1.86c.26-.17.46-.28.6-.33.24-.09.54-.13.88-.13.7,0,1.31.24,1.84.71.52.47.78,1.16.78,2.06,0,.79-.25,1.49-.75,2.1-.5.62-1.26.93-2.26.93-.81,0-1.47-.22-1.99-.65s-.81-1.05-.87-1.85h1.66Z"/>
    <path d="m152.84,22.44c0-.14-.05-.29-.16-.45-.18-.27-.45-.4-.81-.4-.54,0-.93.3-1.16.91-.12.34-.21.83-.26,1.49.21-.25.45-.43.72-.54s.59-.17.94-.17c.75,0,1.37.26,1.85.77s.72,1.17.72,1.96-.24,1.49-.71,2.1-1.21.91-2.2.91c-1.07,0-1.86-.45-2.37-1.34-.39-.7-.59-1.6-.59-2.71,0-.65.03-1.18.08-1.58.1-.72.29-1.32.57-1.8.24-.41.56-.74.95-.99s.86-.38,1.41-.38c.79,0,1.42.2,1.89.61s.73.94.79,1.61h-1.66Zm-1.98,4.79c.25.29.56.43.94.43s.66-.14.88-.42.32-.64.32-1.09c0-.5-.12-.88-.36-1.14s-.54-.4-.89-.4c-.29,0-.54.09-.76.26-.33.25-.49.66-.49,1.23,0,.46.12.83.37,1.12Z"/>
  </g>
</svg>